<svg width="48" height="48" fill="none" xmlns="http://www.w3.org/2000/svg"><path d="M15.3 28.3c-.567 0-1.042-.192-1.425-.575-.383-.383-.575-.858-.575-1.425 0-.567.192-1.042.575-1.425.383-.383.858-.575 1.425-.575.567 0 1.042.192 1.425.575.383.383.575.858.575 1.425 0 .567-.192 1.042-.575 1.425-.383.383-.858.575-1.425.575zm8.85 0c-.567 0-1.042-.192-1.425-.575-.383-.383-.575-.858-.575-1.425 0-.567.192-1.042.575-1.425.383-.383.858-.575 1.425-.575.567 0 1.042.192 1.425.575.383.383.575.858.575 1.425 0 .567-.192 1.042-.575 1.425-.383.383-.858.575-1.425.575zm8.5 0c-.567 0-1.042-.192-1.425-.575-.383-.383-.575-.858-.575-1.425 0-.567.192-1.042.575-1.425.383-.383.858-.575 1.425-.575.567 0 1.042.192 1.425.575.383.383.575.858.575 1.425 0 .567-.192 1.042-.575 1.425-.383.383-.858.575-1.425.575zM9 44c-.8 0-1.5-.3-2.1-.9-.6-.6-.9-1.3-.9-2.1V10c0-.8.3-1.5.9-2.1C7.5 7.3 8.2 7 9 7h3.25V4h3.25v3h17V4h3.25v3H39c.8 0 1.5.3 2.1.9.6.6.9 1.3.9 2.1v31c0 .8-.3 1.5-.9 2.1-.6.6-1.3.9-2.1.9H9zm0-3h30V19.5H9V41zm0-24.5h30V10H9v6.5z" fill="#000" fill-opacity=".7"/></svg>