<svg width="25" height="26" fill="none" xmlns="http://www.w3.org/2000/svg"><path fill-rule="evenodd" clip-rule="evenodd" d="M12.015 0c6.625 0 12.013 5.389 12.013 12.014 0 3.125-1.2 5.976-3.162 8.115l3.862 3.854a.924.924 0 0 1-.654 1.58.926.926 0 0 1-.653-.27l-3.91-3.897a11.955 11.955 0 0 1-7.496 2.632C5.39 24.028 0 18.638 0 12.014 0 5.389 5.39 0 12.015 0zm0 1.85C6.41 1.85 1.85 6.41 1.85 12.015c0 5.604 4.56 10.164 10.164 10.164 5.603 0 10.163-4.56 10.163-10.165 0-5.604-4.56-10.162-10.163-10.162z" fill="#10263C" fill-opacity=".5"/></svg>