<svg width="45" height="45" fill="none" xmlns="http://www.w3.org/2000/svg"><path d="M42.25 45 25.812 28.562c-1.25 1.084-2.707 1.928-4.372 2.532-1.665.604-3.437.906-5.315.906-4.507 0-8.32-1.563-11.443-4.688C1.561 24.188 0 20.418 0 16S1.563 7.812 4.688 4.687 11.593 0 16.03 0c4.438 0 8.209 1.563 11.313 4.688C30.448 7.813 32 11.585 32 16.008c0 1.786-.292 3.512-.875 5.178-.583 1.667-1.458 3.23-2.625 4.688L45 42.25 42.25 45zM16.062 28.25c3.386 0 6.264-1.198 8.633-3.594 2.37-2.396 3.555-5.281 3.555-8.656 0-3.375-1.185-6.26-3.555-8.656-2.37-2.396-5.247-3.594-8.633-3.594-3.42 0-6.327 1.198-8.72 3.594C4.946 9.74 3.75 12.625 3.75 16c0 3.375 1.197 6.26 3.591 8.656 2.394 2.396 5.301 3.594 8.721 3.594z" fill="#000" fill-opacity=".7"/></svg>